<svg width="254" height="194" viewBox="0 0 254 194" fill="none" xmlns="http://www.w3.org/2000/svg">
<path d="M149.011 0.158587C156.101 0.249086 164.426 4.33593 175.524 11.3266C175.814 11.5091 176.167 11.6157 176.511 11.6264C187.943 11.9764 194.997 14.1352 199.679 18.4799C204.356 22.8195 206.617 29.2977 208.58 38.1439C208.76 38.9556 209.456 39.5675 210.287 39.6508C224.335 41.0557 233.619 43.841 238.849 50.2387C244.081 56.6388 245.192 66.5742 243.14 82.0844C243.083 82.5121 243.177 82.9714 243.396 83.3422C251.15 96.4385 254.71 106.143 252.811 114.446C250.909 122.759 243.561 129.567 229.809 136.949C229.271 137.237 228.886 137.776 228.796 138.376C227.634 146.127 226.096 152.047 222.584 157.179C219.073 162.312 213.607 166.627 204.65 171.217C204.5 171.294 204.335 171.358 204.171 171.402C198.406 172.95 193.78 173.805 189.245 173.946C184.708 174.087 180.274 173.514 174.894 172.22C173.514 171.889 172.239 173.088 172.514 174.466L175.64 190.097C175.942 191.605 174.789 193.012 173.251 193.012H153.942C153.023 193.012 152.18 192.494 151.766 191.673L125.262 139.191C125.158 138.985 125.018 138.8 124.849 138.646L124.67 138.501L104.33 124.009C103.704 123.563 103.332 122.841 103.332 122.072C103.333 120.735 104.435 119.66 105.772 119.694L144.416 120.678C145.543 120.707 146.486 121.509 146.767 122.584C147.923 127.018 149.501 129.458 151.99 130.419C154.508 131.392 158.049 130.893 163.25 129.168C163.902 128.952 164.62 129.01 165.225 129.343L180.574 137.811C182.778 139.027 181.915 142.381 179.397 142.381H162.742C162.222 142.381 161.726 142.593 161.385 142.973C159.904 144.626 159.214 145.846 159.214 146.911C159.215 147.954 159.885 148.948 161.42 150.143C161.726 150.381 162.113 150.504 162.511 150.504H191.036C191.451 150.504 191.86 150.615 192.221 150.805C197.998 153.85 203.356 153.791 206.742 151.491C210.107 149.203 211.629 144.621 209.58 138.369C209.34 137.637 209.416 136.819 209.847 136.163L220.932 119.296C221.458 118.496 222.392 118.115 223.309 118.13C227.277 118.196 230.692 115.859 232.222 112.42C233.748 108.99 233.41 104.434 229.795 100.05C229.667 99.8945 229.506 99.7584 229.331 99.6566C227.801 98.7679 226.701 98.3284 225.566 98.2963C224.148 98.2559 222.569 97.4994 222.327 95.9613L219.222 76.223C219.041 75.0662 219.719 73.9936 220.69 73.4369C226.554 70.0751 228.771 61.2388 224.149 55.643C221.988 53.0272 219.477 51.7365 217.069 51.4965C214.66 51.2566 212.329 52.0653 210.521 53.6928C209.443 54.6629 207.694 54.9299 206.581 53.8685L186.253 34.4984C185.687 33.9586 185.42 33.1786 185.512 32.4076C186.042 27.9646 185.908 24.9718 184.701 22.9398C183.506 20.9298 181.213 19.7884 177.206 19.1869H177.205C173.913 18.6606 171.584 18.6155 169.801 19.2699C168.039 19.917 166.764 21.2662 165.624 23.6478C165.202 24.5299 164.327 25.1469 163.328 25.1469H131.379C129.966 25.1464 128.848 23.9467 128.949 22.5365L129.554 14.0629C129.585 13.6362 129.733 13.2158 129.975 12.8637C136.061 4.01751 141.877 0.0678426 149.011 0.158587ZM93.142 0.327532C100.112 -0.574421 106.373 0.362014 110.911 3.44081C115.461 6.52881 118.233 11.7418 118.278 19.2826C118.285 20.5882 117.197 21.6264 115.906 21.6264H93.1362C92.1475 21.626 91.2794 21.024 90.8481 20.1586C87.8199 14.0806 82.8997 12.1381 78.7035 13.3432C74.4929 14.5527 70.8915 18.9634 70.5912 25.8373C70.5623 26.4987 70.2947 27.1471 69.8012 27.6098L53.8217 42.5902C53.343 43.039 52.7067 43.2686 52.059 43.2602C47.4056 43.1996 42.6386 44.2063 39.8334 46.9564C38.4387 48.3239 37.5191 50.1317 37.3393 52.4838C37.1592 54.8425 37.7229 57.7635 39.3227 61.3471C39.5693 61.8994 39.6244 62.54 39.4418 63.1273L30.0092 93.4652C29.7731 94.2245 29.1809 94.8054 28.4545 95.0853C23.5941 96.9587 20.7293 100.304 19.7729 103.828C18.8166 107.351 19.7607 111.078 22.5649 113.755C23.9543 115.082 25.3087 115.882 26.6313 116.254C27.9517 116.626 29.2576 116.575 30.558 116.178C33.1725 115.38 35.7709 113.178 38.3901 110.166C38.9756 109.493 39.8784 109.166 40.7612 109.344L82.1147 117.713C83.1331 117.92 83.8853 118.747 84.0873 119.745C84.7783 123.167 86.0671 125.064 88.1645 126.046C90.2961 127.045 93.3152 127.128 97.5444 126.762C98.1838 126.707 98.8231 126.9 99.3217 127.309L117.341 142.093C118.653 143.17 118.485 145.234 116.996 146.061C107.323 151.429 99.2336 154.29 90.4594 154.213C81.69 154.136 72.2701 151.126 59.935 144.822C59.5101 144.604 59.1494 144.26 58.9155 143.842L56.0629 138.748C55.7292 138.153 55.0839 137.78 54.3959 137.776C38.6104 137.692 27.81 136.365 20.7338 132.216C13.6207 128.046 10.3158 121.058 9.41741 109.829C9.3966 109.569 9.32085 109.301 9.20159 109.072C1.9122 95.0394 -1.30213 84.6137 0.483819 75.4447C2.27181 66.2671 9.05287 58.4226 21.5375 49.5092C21.9162 49.2388 22.1978 48.822 22.308 48.3695C24.5718 39.0682 27.5154 33.4825 31.7465 30.2797C35.9788 27.0763 41.447 26.297 48.6469 26.4672C49.2438 26.4812 49.8205 26.2195 50.2035 25.7611C62.2856 11.304 79.2003 2.13189 93.142 0.327532ZM209.273 114.277C211.231 113.876 212.812 115.873 211.973 117.687L205.733 131.174C205.478 131.725 205.025 132.162 204.465 132.397L192.704 137.337C191.995 137.635 191.186 137.58 190.524 137.19L171.947 126.25C170.024 125.118 170.509 122.211 172.695 121.763L209.273 114.277ZM178.177 86.5756C178.822 86.4092 179.508 86.514 180.074 86.8656L206.977 103.596C208.834 104.751 208.347 107.578 206.211 108.045L169.506 116.075C168.548 116.284 167.557 115.898 166.993 115.096L163.347 109.915C162.876 109.246 162.772 108.386 163.071 107.624L170.094 89.7035C170.38 88.9758 170.996 88.4282 171.753 88.2328L178.177 86.5756ZM113.823 77.2182L117.972 77.7162C119.196 77.8631 120.118 78.9021 120.119 80.1351V94.7299C120.119 95.7765 120.967 96.6253 122.014 96.6254H128.176C128.809 96.6254 129.418 96.8715 129.872 97.3119L143.001 110.037C144.573 111.561 143.494 114.224 141.305 114.224H105.769C104.405 114.224 103.434 113.106 103.177 111.851C103.029 111.129 102.749 110.518 102.222 109.965C101.69 109.407 100.894 108.892 99.6918 108.386C98.5468 107.904 97.8159 106.692 98.103 105.448L103.126 83.6791C103.279 83.0173 103.702 82.4488 104.291 82.1117L112.324 77.5219C112.778 77.2625 113.303 77.1559 113.823 77.2182ZM67.2778 92.2367C68.3019 91.7554 69.5228 92.0428 70.225 92.9301L82.4555 108.391C83.1514 109.271 83.1569 110.513 82.4682 111.399L82.436 111.44C81.8701 112.167 80.9422 112.513 80.0385 112.333L48.2797 106.026C45.9733 105.567 45.5899 102.43 47.7182 101.43L67.2778 92.2367ZM158.027 79.515C158.799 79.5518 159.51 79.9536 159.939 80.5971L163.643 86.1537C164.044 86.7553 164.157 87.5045 163.952 88.1976L158.102 107.94C157.852 108.784 157.165 109.428 156.306 109.623L152.76 110.429C151.939 110.616 151.079 110.364 150.487 109.765L130.372 89.3988C129.873 88.8941 129.619 88.1966 129.676 87.4896L130.239 80.5502C130.345 79.2407 131.471 78.2506 132.784 78.3129L158.027 79.515ZM91.8481 80.2943C92.423 79.9891 93.0968 79.9264 93.7182 80.1205L95.2045 80.5844C96.4505 80.9738 97.1685 82.2771 96.8325 83.5385L91.2983 104.292C91.0137 105.359 90.0474 106.101 88.9438 106.101H88.4672C87.6843 106.101 86.9487 105.724 86.4907 105.089L76.6791 91.4877C75.815 90.2893 76.2074 88.6028 77.5121 87.9096L91.8481 80.2943ZM203.027 69.3197C203.7 69.1061 204.434 69.1956 205.037 69.5648L211.834 73.7318C212.376 74.064 212.767 74.5951 212.923 75.2113L218.054 95.4887C218.287 96.4081 217.964 97.3788 217.228 97.9769L215.133 99.6791C214.345 100.319 213.243 100.403 212.367 99.891L182.786 82.5941C182.039 82.157 181.58 81.3561 181.58 80.4906V77.9037C181.58 76.8418 182.268 75.9014 183.28 75.5805L203.027 69.3197ZM49.4867 66.3012C50.2326 66.3014 50.9379 66.6433 51.3998 67.2289L64.2563 83.5297C65.2148 84.7454 64.8117 86.5352 63.4242 87.2221L40.5219 98.556C39.8378 98.8946 39.0337 98.8923 38.351 98.5512L36.6908 97.7211C35.593 97.1721 35.075 95.8919 35.4819 94.7338L44.8989 67.9301C45.2417 66.9543 46.1635 66.3013 47.1977 66.3012H49.4867ZM56.4526 60.7543C57.0261 59.7029 58.2791 59.2246 59.4076 59.6254L89.9594 70.4828C90.3153 70.6093 90.6246 70.8415 90.8442 71.1488C91.5013 72.0688 91.1846 73.3584 90.1762 73.8695L73.641 82.2494C72.5999 82.7767 71.3304 82.4926 70.6147 81.5707L56.6069 63.5258C56.0128 62.7604 55.9283 61.7153 56.392 60.8646L56.4526 60.7543ZM166.416 38.142C167.762 38.142 168.854 39.2329 168.854 40.5785V65.0297C168.854 65.7429 168.541 66.4202 167.998 66.8832L160.212 73.5248C159.736 73.9307 159.122 74.1382 158.497 74.1039L131.898 72.6391C130.606 72.5677 129.595 71.4999 129.595 70.2064V61.0102C129.595 60.1655 130.033 59.3807 130.751 58.9369L163.857 38.5053C164.241 38.268 164.684 38.1421 165.136 38.142H166.416ZM181.608 38.0932C182.555 37.4454 183.826 37.5464 184.66 38.3353L203.29 55.9857C203.776 56.4458 204.052 57.0863 204.052 57.7553V61.2299C204.052 62.2726 203.388 63.2 202.401 63.5365L181.319 70.723C180.44 71.0227 179.467 70.7968 178.81 70.14L175.633 66.9633C175.106 66.4356 174.848 65.6945 174.936 64.9535L177.675 41.7953C177.758 41.0968 178.139 40.4669 178.719 40.0697L181.608 38.0932ZM94.0864 27.2113L115.776 29.5434C117.013 29.6764 117.952 30.7215 117.953 31.9662V57.1771C117.952 57.8918 117.639 58.5707 117.094 59.0336L114.027 61.641C113.025 62.4926 111.565 62.3675 110.611 61.517C109.469 60.4989 108.43 59.8824 107.33 59.5873C106.231 59.2923 105.045 59.3113 103.597 59.6029C102.427 59.8384 101.188 59.3056 100.685 58.1869L89.9477 34.2728C89.6615 33.6348 89.6633 32.9037 89.9526 32.267L91.6078 28.6254C92.0426 27.6692 93.0419 27.0994 94.0864 27.2113ZM72.8559 33.5678C73.4041 33.0283 74.1758 32.7791 74.936 32.8959L83.1459 34.1596C84.0292 34.2954 84.768 34.9044 85.0698 35.7455L93.3774 58.9203C94.0714 60.8569 92.2015 62.7293 90.2641 62.0375L59.9242 51.2016C58.2322 50.5967 57.7537 48.4299 59.0346 47.1693L72.8559 33.5678ZM156.246 31.1371C158.66 31.2163 159.5 34.3834 157.442 35.6488L133.85 50.1518C132.227 51.1498 130.137 49.9821 130.137 48.0766V32.7992C130.137 31.4223 131.278 30.3185 132.654 30.3637L156.246 31.1371Z" fill="black"/>
</svg>
